<svg width="33" height="33" viewBox="0 0 33 33" fill="none" xmlns="http://www.w3.org/2000/svg">
<path d="M27.8736 33H25.4395C24.9225 33 24.5035 32.5809 24.5035 32.0639C24.5035 31.547 24.9225 31.1279 25.4395 31.1279H27.8736C29.6679 31.1279 31.1279 29.668 31.1279 27.8737V5.12634C31.1279 3.33203 29.668 1.87211 27.8736 1.87211H13.8166C13.2996 1.87211 12.8806 1.45303 12.8806 0.936053C12.8806 0.419074 13.2996 0 13.8166 0H27.8736C30.7004 0 33 2.29962 33 5.12634V27.8737C33 30.7004 30.7004 33 27.8736 33Z" fill="#F59836"/>
<path d="M18.6716 33H5.12634C2.29962 33 0 30.7004 0 27.8737V5.12634C0 2.29962 2.29962 0 5.12634 0H7.23293C7.74991 0 8.16898 0.419074 8.16898 0.936053C8.16898 1.45303 7.74991 1.87211 7.23293 1.87211H5.12634C3.33203 1.87211 1.87211 3.33197 1.87211 5.12634V27.8737C1.87211 29.668 3.33197 31.1279 5.12634 31.1279H18.6716C19.1886 31.1279 19.6077 31.547 19.6077 32.0639C19.6077 32.5809 19.1886 33 18.6716 33Z" fill="#F59836"/>
<path d="M25.5939 7.77903L6.51001 15.216C5.89171 15.4569 5.92935 16.3439 6.5657 16.5316L10.9249 17.8186L12.2798 22.8921C12.4688 23.492 13.2289 23.6737 13.6689 23.2244L16.3516 20.6642L22.0411 25.0897C22.6431 25.5315 23.5005 25.2031 23.6534 24.4723L26.9116 8.89465C27.0711 8.13152 26.3205 7.49589 25.5939 7.77903Z" fill="#FEE187"/>
<path d="M22.6455 26.2257H22.6454C22.2276 26.2257 21.827 26.0938 21.4873 25.8444C21.4802 25.8393 21.4734 25.834 21.4665 25.8287L16.4141 21.8987L14.3245 23.8929C13.9903 24.2273 13.5481 24.4111 13.077 24.4111C12.2994 24.4111 11.6203 23.9138 11.3871 23.1735C11.383 23.1603 11.379 23.1471 11.3755 23.1337L10.1562 18.5678L6.3007 17.4294C5.62104 17.2288 5.16226 16.6416 5.13229 15.9335C5.10226 15.2253 5.50973 14.6013 6.17031 14.3439L25.2542 6.90699C25.48 6.81901 25.7151 6.77448 25.9535 6.77448C26.5313 6.77448 27.0737 7.03422 27.4417 7.48707C27.8059 7.93534 27.9467 8.51832 27.8279 9.08641L24.5695 24.6641C24.3803 25.5689 23.5712 26.2257 22.6455 26.2257ZM22.6006 24.3392C22.6158 24.3492 22.6296 24.3535 22.6455 24.3535C22.6533 24.3535 22.7223 24.3515 22.7371 24.2808L25.9954 8.70311C25.9991 8.68557 25.9977 8.67855 25.9887 8.66753C25.979 8.65554 25.9637 8.64645 25.9534 8.64645C25.9487 8.64645 25.9418 8.64813 25.934 8.65122L7.50488 15.8329L11.1899 16.921C11.5027 17.0134 11.7449 17.2621 11.8292 17.5773L13.1292 22.4455L15.7053 19.9872C16.0408 19.667 16.5602 19.6407 16.9262 19.9255L22.6006 24.3392Z" fill="#F59836"/>
<path d="M14.1589 23.2166C14.1883 23.3117 15.2607 21.9711 15.2721 21.872L14.7911 19.5171C14.7278 19.2069 14.8402 18.887 15.0836 18.6847L23.9007 11.3581C24.1129 11.1703 23.8664 10.8392 23.6258 10.9883L13.2574 17.3122C13.0116 17.4622 12.8847 17.7489 12.9391 18.0315L14.1589 23.2166Z" fill="#F59836"/>
</svg>
